<svg width="262" height="225" viewBox="0 0 262 225" fill="none" xmlns="http://www.w3.org/2000/svg">
<g clip-path="url(#clip0_75_8085)">
<path d="M131.32 6.29933C131.308 7.03414 131.164 7.75917 130.896 8.43302C130.628 9.10686 130.241 9.71631 129.758 10.2265C129.275 10.7368 128.705 11.1378 128.081 11.4067C127.456 11.6757 126.789 11.8072 126.118 11.7938H101.989C101.901 11.7914 101.814 11.7889 101.726 11.7816C101.5 11.7656 101.275 11.7319 101.054 11.6809V2.32698C101.054 1.95272 101.158 1.58733 101.353 1.27975C101.547 0.972175 101.823 0.737087 102.143 0.605957H126.302C127.657 0.633997 128.945 1.24917 129.886 2.31651C130.827 3.38386 131.342 4.81621 131.32 6.29933Z" fill="#060505"/>
<path d="M258.714 1.28499e-05H103.096C102.761 -0.00107183 102.428 0.0665228 102.116 0.199307C101.585 0.41654 101.128 0.805996 100.806 1.31554C100.483 1.82508 100.31 2.43038 100.311 3.0504V188.921C100.311 189.73 100.604 190.505 101.127 191.077C101.649 191.649 102.357 191.971 103.096 191.971H258.714C259.453 191.971 260.161 191.649 260.683 191.077C261.206 190.505 261.499 189.73 261.5 188.921V3.0504C261.499 2.24148 261.206 1.46577 260.683 0.893775C260.161 0.321779 259.453 0.00030606 258.714 1.28499e-05ZM260.385 188.921C260.385 189.406 260.208 189.871 259.895 190.214C259.582 190.557 259.157 190.75 258.714 190.751H103.096C102.653 190.75 102.228 190.557 101.915 190.214C101.602 189.871 101.425 189.406 101.425 188.921V3.0504C101.425 2.56522 101.602 2.10012 101.915 1.75704C102.228 1.41396 102.653 1.2209 103.096 1.22017H258.714C259.157 1.2209 259.582 1.41396 259.895 1.75704C260.208 2.10012 260.385 2.56522 260.385 3.0504V188.921Z" fill="#060505"/>
<path d="M176.121 63.8636C178.14 63.8636 179.776 62.0713 179.776 59.8603C179.776 57.6493 178.14 55.8569 176.121 55.8569C174.102 55.8569 172.465 57.6493 172.465 59.8603C172.465 62.0713 174.102 63.8636 176.121 63.8636Z" fill="#FF2727"/>
<path d="M191.353 63.8636C193.372 63.8636 195.009 62.0713 195.009 59.8603C195.009 57.6493 193.372 55.8569 191.353 55.8569C189.334 55.8569 187.697 57.6493 187.697 59.8603C187.697 62.0713 189.334 63.8636 191.353 63.8636Z" fill="#FF2727"/>
<path d="M145.656 96.9456C147.675 96.9456 149.311 95.1533 149.311 92.9423C149.311 90.7313 147.675 88.939 145.656 88.939C143.637 88.939 142 90.7313 142 92.9423C142 95.1533 143.637 96.9456 145.656 96.9456Z" fill="#FF2727"/>
<path d="M160.888 96.9456C162.907 96.9456 164.544 95.1533 164.544 92.9423C164.544 90.7313 162.907 88.939 160.888 88.939C158.869 88.939 157.232 90.7313 157.232 92.9423C157.232 95.1533 158.869 96.9456 160.888 96.9456Z" fill="#FF2727"/>
<path d="M176.121 113.487C178.14 113.487 179.776 111.694 179.776 109.483C179.776 107.272 178.14 105.48 176.121 105.48C174.102 105.48 172.465 107.272 172.465 109.483C172.465 111.694 174.102 113.487 176.121 113.487Z" fill="#FF2727"/>
<path d="M191.353 113.487C193.372 113.487 195.009 111.694 195.009 109.483C195.009 107.272 193.372 105.48 191.353 105.48C189.334 105.48 187.697 107.272 187.697 109.483C187.697 111.694 189.334 113.487 191.353 113.487Z" fill="#FF2727"/>
<path d="M206.585 113.487C208.604 113.487 210.241 111.694 210.241 109.483C210.241 107.272 208.604 105.48 206.585 105.48C204.566 105.48 202.93 107.272 202.93 109.483C202.93 111.694 204.566 113.487 206.585 113.487Z" fill="#FF2727"/>
<path d="M114.982 2.95773C114.901 3.04697 114.855 3.168 114.855 3.2942C114.855 3.4204 114.901 3.54145 114.982 3.6307L116.848 5.67363H112.248C112.133 5.674 112.023 5.7243 111.941 5.81351C111.86 5.90271 111.814 6.02354 111.814 6.14952C111.814 6.27549 111.86 6.39632 111.941 6.48552C112.023 6.57473 112.133 6.62503 112.248 6.6254H116.848L114.982 8.6683C114.901 8.75754 114.855 8.87858 114.855 9.00479C114.855 9.131 114.901 9.25205 114.982 9.34129C115.064 9.43054 115.174 9.48068 115.29 9.48068C115.405 9.48068 115.515 9.43055 115.597 9.3413L118.204 6.48602C118.286 6.39677 118.332 6.27573 118.332 6.14952C118.332 6.0233 118.286 5.90226 118.204 5.81301L115.597 2.95773C115.515 2.86849 115.405 2.81836 115.29 2.81836C115.174 2.81836 115.064 2.86849 114.982 2.95773Z" fill="white"/>
<path d="M225.156 68.4012H126.996C126.617 68.4012 126.309 68.2191 126.309 67.9945C126.309 67.7699 126.617 67.5878 126.996 67.5878H225.156C225.536 67.5878 225.844 67.7699 225.844 67.9945C225.844 68.2191 225.536 68.4012 225.156 68.4012Z" fill="#060505"/>
<path d="M225.156 50.4331H126.996C126.617 50.4331 126.309 50.251 126.309 50.0263C126.309 49.8017 126.617 49.6196 126.996 49.6196H225.156C225.536 49.6196 225.844 49.8017 225.844 50.0263C225.844 50.251 225.536 50.4331 225.156 50.4331Z" fill="#060505"/>
<path d="M225.472 85.1836H126.768C126.669 85.1836 126.575 85.1407 126.505 85.0644C126.436 84.9882 126.396 84.8847 126.396 84.7768C126.396 84.669 126.436 84.5655 126.505 84.4892C126.575 84.413 126.669 84.3701 126.768 84.3701H225.472C225.571 84.3701 225.665 84.413 225.735 84.4892C225.805 84.5655 225.844 84.669 225.844 84.7768C225.844 84.8847 225.805 84.9882 225.735 85.0644C225.665 85.1407 225.571 85.1836 225.472 85.1836Z" fill="#060505"/>
<path d="M225.472 101.452H126.768C126.669 101.452 126.575 101.409 126.505 101.333C126.436 101.257 126.396 101.153 126.396 101.046C126.396 100.938 126.436 100.834 126.505 100.758C126.575 100.682 126.669 100.639 126.768 100.639H225.472C225.571 100.639 225.665 100.682 225.735 100.758C225.805 100.834 225.844 100.938 225.844 101.046C225.844 101.153 225.805 101.257 225.735 101.333C225.665 101.409 225.571 101.452 225.472 101.452Z" fill="#060505"/>
<path d="M225.472 118.128H126.768C126.669 118.128 126.575 118.085 126.505 118.009C126.436 117.932 126.396 117.829 126.396 117.721C126.396 117.613 126.436 117.51 126.505 117.433C126.575 117.357 126.669 117.314 126.768 117.314H225.472C225.571 117.314 225.665 117.357 225.735 117.433C225.805 117.51 225.844 117.613 225.844 117.721C225.844 117.829 225.805 117.932 225.735 118.009C225.665 118.085 225.571 118.128 225.472 118.128Z" fill="#060505"/>
<path d="M213.961 117.29V50.2785C213.961 50.1393 214.127 50.0264 214.332 50.0264C214.537 50.0264 214.704 50.1393 214.704 50.2785V117.29C214.704 117.429 214.537 117.542 214.332 117.542C214.127 117.542 213.961 117.429 213.961 117.29Z" fill="#060505"/>
<path d="M198.732 117.29V50.2785C198.732 50.1393 198.899 50.0264 199.104 50.0264C199.309 50.0264 199.475 50.1393 199.475 50.2785V117.29C199.475 117.429 199.309 117.542 199.104 117.542C198.899 117.542 198.732 117.429 198.732 117.29Z" fill="#060505"/>
<path d="M183.506 117.29V50.2785C183.506 50.1393 183.672 50.0264 183.877 50.0264C184.082 50.0264 184.249 50.1393 184.249 50.2785V117.29C184.249 117.429 184.082 117.542 183.877 117.542C183.672 117.542 183.506 117.429 183.506 117.29Z" fill="#060505"/>
<path d="M168.648 117.29V50.2785C168.648 50.1393 168.815 50.0264 169.02 50.0264C169.225 50.0264 169.391 50.1393 169.391 50.2785V117.29C169.391 117.429 169.225 117.542 169.02 117.542C168.815 117.542 168.648 117.429 168.648 117.29Z" fill="#060505"/>
<path d="M153.051 134.308V50.3423C153.072 50.252 153.12 50.1719 153.187 50.1146C153.254 50.0574 153.337 50.0264 153.422 50.0264C153.507 50.0264 153.59 50.0574 153.657 50.1146C153.725 50.1719 153.773 50.252 153.794 50.3423V134.308C153.773 134.398 153.725 134.478 153.657 134.536C153.59 134.593 153.507 134.624 153.422 134.624C153.337 134.624 153.254 134.593 153.187 134.536C153.12 134.478 153.072 134.398 153.051 134.308Z" fill="#060505"/>
<path d="M137.451 134.308V50.3423C137.472 50.252 137.52 50.1719 137.587 50.1146C137.655 50.0574 137.737 50.0264 137.823 50.0264C137.908 50.0264 137.99 50.0574 138.058 50.1146C138.125 50.1719 138.173 50.252 138.194 50.3423V134.308C138.173 134.398 138.125 134.478 138.058 134.536C137.99 134.593 137.908 134.624 137.823 134.624C137.737 134.624 137.655 134.593 137.587 134.536C137.52 134.478 137.472 134.398 137.451 134.308Z" fill="#060505"/>
<path d="M126.769 134.803C126.67 134.804 126.576 134.761 126.506 134.685C126.436 134.609 126.397 134.505 126.396 134.398C126.396 134.29 126.435 134.186 126.505 134.11C126.574 134.033 126.669 133.99 126.767 133.99L164.562 133.81C164.66 133.813 164.753 133.856 164.823 133.931C164.892 134.007 164.932 134.109 164.935 134.216C164.935 134.269 164.926 134.322 164.907 134.371C164.889 134.421 164.862 134.466 164.827 134.504C164.793 134.542 164.752 134.572 164.707 134.592C164.662 134.613 164.614 134.624 164.565 134.624L126.77 134.803H126.769Z" fill="#060505"/>
<path d="M154.401 32.6099C154.302 32.61 154.208 32.5672 154.138 32.491C154.069 32.4148 154.029 32.3114 154.029 32.2035C154.029 32.0956 154.068 31.9922 154.138 31.9158C154.208 31.8395 154.302 31.7966 154.4 31.7965L207.409 31.724H207.41C207.508 31.7239 207.603 31.7667 207.672 31.8429C207.742 31.9191 207.781 32.0226 207.781 32.1304C207.781 32.2383 207.742 32.3418 207.673 32.4181C207.603 32.4944 207.509 32.5374 207.41 32.5374L154.402 32.6099H154.401Z" fill="#060505"/>
<path d="M172.349 165.21C170.878 165.21 169.439 164.732 168.215 163.837C166.992 162.942 166.038 161.669 165.475 160.18C164.911 158.691 164.764 157.052 165.051 155.472C165.338 153.891 166.047 152.439 167.088 151.299C168.128 150.16 169.454 149.384 170.898 149.069C172.341 148.755 173.837 148.916 175.197 149.533C176.557 150.15 177.719 151.194 178.537 152.534C179.354 153.874 179.791 155.45 179.791 157.062C179.791 158.132 179.598 159.191 179.224 160.18C178.85 161.169 178.302 162.067 177.611 162.824C176.92 163.58 176.1 164.18 175.197 164.59C174.294 165 173.327 165.21 172.349 165.21Z" fill="#060505"/>
<path d="M175.286 156.258H173.084V153.846C173.084 153.633 173.007 153.429 172.869 153.278C172.731 153.127 172.545 153.042 172.35 153.042C172.155 153.042 171.968 153.127 171.831 153.278C171.693 153.429 171.616 153.633 171.616 153.846V156.258H169.414C169.219 156.258 169.032 156.342 168.895 156.493C168.757 156.644 168.68 156.848 168.68 157.062C168.68 157.275 168.757 157.479 168.895 157.63C169.032 157.781 169.219 157.865 169.414 157.865H171.616V160.277C171.616 160.383 171.634 160.487 171.671 160.585C171.708 160.683 171.762 160.772 171.83 160.846C171.898 160.921 171.979 160.981 172.069 161.021C172.158 161.062 172.253 161.083 172.35 161.083C172.446 161.083 172.542 161.062 172.631 161.021C172.72 160.981 172.801 160.921 172.869 160.846C172.938 160.772 172.992 160.683 173.028 160.585C173.065 160.487 173.084 160.383 173.084 160.277V157.865H175.286C175.481 157.865 175.667 157.781 175.805 157.63C175.943 157.479 176.02 157.275 176.02 157.062C176.02 156.848 175.943 156.644 175.805 156.493C175.667 156.342 175.481 156.258 175.286 156.258Z" fill="white"/>
<path d="M189.435 165.21C187.964 165.21 186.525 164.732 185.301 163.837C184.078 162.942 183.124 161.669 182.561 160.18C181.997 158.691 181.85 157.052 182.137 155.472C182.424 153.891 183.133 152.439 184.174 151.299C185.214 150.16 186.54 149.384 187.984 149.069C189.427 148.755 190.923 148.916 192.283 149.533C193.643 150.15 194.805 151.194 195.623 152.534C196.44 153.874 196.877 155.45 196.877 157.062C196.877 158.132 196.684 159.191 196.31 160.18C195.936 161.169 195.388 162.067 194.697 162.824C194.006 163.58 193.186 164.18 192.283 164.59C191.38 165 190.413 165.21 189.435 165.21Z" fill="#060505"/>
<path d="M193.2 160.529L191.262 158.044C191.715 157.341 191.913 156.477 191.814 155.623C191.716 154.769 191.329 153.986 190.729 153.428C190.13 152.87 189.362 152.578 188.576 152.61C187.79 152.641 187.044 152.993 186.483 153.597C185.923 154.201 185.589 155.013 185.547 155.873C185.506 156.733 185.76 157.579 186.259 158.244C186.759 158.909 187.467 159.345 188.246 159.467C189.024 159.589 189.816 159.387 190.465 158.902L192.353 161.322C192.449 161.444 192.585 161.519 192.732 161.531C192.879 161.544 193.024 161.492 193.136 161.387C193.248 161.282 193.318 161.133 193.33 160.973C193.342 160.812 193.295 160.652 193.2 160.529ZM186.648 156.045C186.648 155.602 186.768 155.17 186.992 154.802C187.217 154.434 187.536 154.147 187.909 153.978C188.282 153.809 188.693 153.765 189.089 153.851C189.486 153.937 189.85 154.15 190.135 154.463C190.421 154.776 190.616 155.174 190.694 155.608C190.773 156.042 190.733 156.492 190.578 156.901C190.424 157.31 190.162 157.659 189.826 157.905C189.49 158.151 189.095 158.282 188.691 158.282C188.149 158.281 187.63 158.045 187.247 157.626C186.864 157.206 186.649 156.638 186.648 156.045Z" fill="white"/>
<path d="M154.401 166.014C154.302 166.014 154.208 165.971 154.138 165.895C154.069 165.819 154.029 165.715 154.029 165.608C154.029 165.5 154.068 165.396 154.138 165.32C154.208 165.243 154.302 165.201 154.4 165.2L207.409 165.128H207.41C207.508 165.128 207.603 165.17 207.672 165.247C207.742 165.323 207.781 165.426 207.781 165.534C207.781 165.642 207.742 165.746 207.673 165.822C207.603 165.898 207.509 165.941 207.41 165.941L154.402 166.014H154.401Z" fill="#060505"/>
<path d="M86.5652 219.226L91.3032 219.226L93.5572 199.214L86.5645 199.214L86.5652 219.226Z" fill="#FFB6B6"/>
<path d="M85.3594 217.532V224.255H100.635V224.043C100.635 222.316 100.008 220.66 98.8933 219.439C97.7782 218.218 96.266 217.532 94.689 217.532L91.8961 215.213L91.7512 215.278L86.6927 217.532H85.3594Z" fill="#2F2E41"/>
<path d="M43.7568 212.481L47.9971 214.795L58.1665 197.986L51.908 194.57L43.7568 212.481Z" fill="#FFB6B6"/>
<path d="M40.627 216.393L54.2983 223.852L54.3837 223.665C54.7325 222.9 54.9402 222.067 54.995 221.214C55.0497 220.361 54.9504 219.505 54.7028 218.694C54.4551 217.883 54.0639 217.133 53.5516 216.488C53.0393 215.842 52.4159 215.314 51.717 214.933L50.1608 211.496L49.9974 211.484L44.5601 211.024L44.4487 210.963L43.3642 210.373L40.627 216.393Z" fill="#2F2E41"/>
<path d="M89.7788 111.663L63.6539 112.664L63.4719 112.374C63.4719 112.374 61.2434 118.069 61.2434 122.949C61.2434 124.572 62.274 135.185 61.7501 137.193C61.685 137.443 62.1333 138.055 61.9862 139.218C61.8909 139.973 61.3644 139.392 61.2434 140.438C61.1566 141.189 62.0832 141.603 61.9862 142.472C61.8803 143.42 60.6058 146.494 60.4911 147.549C59.2696 158.785 57.6434 175.063 57.6434 175.063C57.6434 175.063 51.1117 194.22 49.7299 194.532C47.4107 195.054 45.8449 199.672 47.1301 200.632C47.7421 201.09 55.6518 204.166 55.6518 204.166C56.0864 204.252 57.446 203.506 56.5799 201.74C56.4204 201.414 57.3714 202.242 57.5294 201.853C57.6975 201.439 57.3675 199.792 57.56 199.332C59.2886 195.207 61.9426 189.49 64.4577 186.554C68.1739 182.217 70.5272 176.693 71.1744 170.788L76.9432 135.759L78.9204 145.582L80.5564 147.352L80.1076 151.48L80.185 155.487L84.2704 172.162C84.2704 172.162 84.8831 203.304 83.899 204.293C83.366 204.829 81.1044 211.426 85.3846 212.021L93.1612 211.364C93.1612 211.364 94.209 208.946 93.6851 208.085C93.1612 207.224 93.1926 207.459 93.8318 206.051C94.471 204.643 94.209 202.256 94.209 202.256C95.2277 191.041 95.6296 179.769 95.4125 168.502C95.0227 149.995 92.6603 128.734 92.6603 128.301C92.6405 127.858 92.715 127.416 92.8779 127.01V125.842L91.8744 121.703L89.7788 111.663Z" fill="#2F2E41"/>
<path d="M55.956 122.069C55.737 121.659 55.6026 121.201 55.5625 120.728C55.5224 120.255 55.5775 119.779 55.7238 119.332C55.8702 118.884 56.1043 118.478 56.4097 118.141C56.715 117.803 57.0842 117.543 57.4912 117.379L57.3035 96.8231L61.9335 100.031L61.4013 119.513C61.6078 120.28 61.5502 121.104 61.2395 121.827C60.9287 122.551 60.3863 123.125 59.7151 123.44C59.0439 123.755 58.2906 123.789 57.5977 123.536C56.9049 123.284 56.3208 122.762 55.956 122.069Z" fill="#FFB8B8"/>
<path d="M57.0133 113.452L57.4074 113.431L57.4543 113.432L58.9125 113.427L61.3141 113.421L61.4881 113.418L61.5664 113.435L62.3862 113.591L62.4202 113.35L64.0184 110.007L65.247 108.156L64.8 105.975L63.9183 104.773L65.4158 102.786L65.605 101.804L66.8584 95.3494L71.013 73.9402L71.0133 73.9274L71.1006 73.4731L72.4517 66.518L72.0355 64.7691L71.5716 62.8491C71.2749 61.6301 70.5871 60.5689 69.6343 59.8599C69.2208 59.5534 68.7656 59.3206 68.2856 59.1701C67.6739 58.9717 67.0313 58.9137 66.3981 59L66.391 59.0023C66.0318 59.0512 65.6787 59.1447 65.3387 59.2808L65.2034 59.3387C65.0151 59.4223 64.8319 59.5189 64.6548 59.6279C64.106 59.9621 63.6234 60.4124 63.2351 60.9528C62.8468 61.4932 62.5605 62.1127 62.3928 62.7754L57.9908 68.1453L57.2165 71.1838L56.9675 72.1596L56.1695 77.3615L56.1814 97.8328L56.0393 98.7602L55.8373 103.9L56.6268 105.078L55.7348 106.506L55.7042 107.29L55.6982 107.492L56.8895 108.816L56.9655 111.673L57.0133 113.452Z" fill="#3F3D56"/>
<path d="M61.3135 118.355C67.9099 119.604 72.3333 119.129 75.0554 114.695C78.6067 109.743 85.0651 115.59 90.5142 117.764L91.1605 116.999L92.2598 115.702L91.2496 114.449L92.2598 112.033L91.4168 109.052L90.3397 108.837L90.6294 106.27L91.0825 104.769L89.7529 103.171L88.6238 99.181L89.4372 90.8311C90.5502 79.3857 88.3935 67.844 83.2644 57.7974L80.1781 54.7633L78.8967 53.5024L77.1771 49.9884L75.361 50.2202L70.4436 50.8425L70.2765 51.2818L69.0694 54.4704L64.6844 59.6286C64.0643 60.3581 63.593 61.2239 63.3021 62.1684C63.0111 63.1128 62.9071 64.1143 62.997 65.1061L63.1233 66.4971L63.2161 67.4976L63.6544 72.3132L65.4408 91.9862L65.5745 93.0314L67.0119 104.342C64.6757 106.815 64.5335 106.276 63.5419 110.627C63.4305 111.111 62.138 112.189 62.0563 112.661C61.9411 113.328 61.3135 118.355 61.3135 118.355Z" fill="#3F3D56"/>
<path d="M74.7069 47.9154C79.4239 47.9154 83.2477 43.728 83.2477 38.5625C83.2477 33.3969 79.4239 29.2095 74.7069 29.2095C69.9899 29.2095 66.166 33.3969 66.166 38.5625C66.166 43.728 69.9899 47.9154 74.7069 47.9154Z" fill="#FFB6B6"/>
<path d="M65.7713 31.5218C66.9177 30.2146 68.749 29.5699 70.304 30.1902C70.6518 29.1005 71.2659 28.1362 72.0794 27.4022C72.893 26.6683 73.8748 26.1928 74.918 26.0276C75.9613 25.8624 77.0259 26.0138 77.996 26.4653C78.9661 26.9168 79.8045 27.6511 80.4199 28.5883C80.7013 28.4499 81.0105 28.3934 81.3177 28.4243C81.6248 28.4553 81.9195 28.5725 82.1731 28.7647C82.6768 29.1569 83.0825 29.6811 83.3532 30.2894C84.0514 31.7421 84.3769 33.375 84.2949 35.0142C84.213 36.6535 83.7267 38.2377 82.8878 39.5982C83.222 38.8592 82.2823 40.1321 81.3663 39.7986C80.5795 39.5727 77.3478 37.3034 76.5412 37.4182C75.7348 37.5329 75.4731 36.8207 74.6842 36.6047C73.9115 36.3341 71.9389 39.8322 71.5436 42.1469C71.4687 42.5855 71.2868 43.1305 70.8794 43.1405C70.3776 43.1528 70.2274 42.3659 69.8042 42.0704C69.6047 41.9593 69.3737 41.9373 69.1597 42.0091C68.9457 42.0809 68.7656 42.2409 68.6572 42.4553C68.5583 42.6757 68.5089 42.9187 68.5131 43.1642C68.5172 43.4097 68.5749 43.6506 68.6813 43.8668C68.8975 44.2964 69.1757 44.6851 69.5051 45.0176L69.286 45.1494C69.0701 45.3187 68.8072 45.4005 68.5424 45.3809C68.2775 45.3612 68.0271 45.2412 67.8341 45.0415C67.0185 45.4445 64.7998 43.1717 65.0943 41.7966C64.4749 40.1112 64.1361 38.3178 64.0942 36.5014C64.0599 34.6694 64.659 32.8908 65.7713 31.5218Z" fill="#2F2E41"/>
<path d="M128.423 87.2726C128.01 87.4154 127.572 87.4571 127.142 87.3948C126.713 87.3325 126.3 87.1677 125.935 86.912C125.569 86.6564 125.259 86.3161 125.027 85.9151C124.794 85.5141 124.645 85.0621 124.589 84.5911L106.246 80.222L110.131 75.9916L127.359 80.8907C128.088 80.8407 128.808 81.0852 129.383 81.5779C129.958 82.0706 130.348 82.7772 130.48 83.5638C130.611 84.3505 130.474 85.1625 130.095 85.8461C129.716 86.5296 129.121 87.0372 128.423 87.2726Z" fill="#FFB8B8"/>
<path d="M78.8519 58.274C77.7887 58.3165 76.7687 58.7457 75.9532 59.4939C75.5019 59.9036 75.1256 60.4032 74.8442 60.9663C74.5344 61.577 74.3412 62.2503 74.2762 62.9454L74.2764 62.9494C74.1813 63.973 74.3652 65.0044 74.8048 65.9137C75.2445 66.8229 75.9202 67.5692 76.7467 68.0584L82.7894 71.6444L83.5548 72.0976C88.7034 77.8442 97.385 80.8481 107.372 82.841L113.114 84.561L115.045 83.7765L115.512 85.7862L117.434 85.855L118.479 85.6172L120.666 84.6781L121.083 83.7583L121.083 83.7542L121.981 79.3942L121.987 79.3654L121.987 79.3613L122.196 78.3638L120.963 77.7389L119.89 76.1696L117.95 76.2122L116.181 76.3809L115.663 75.0532L93.2454 63.6935L88.6038 61.3391L88.5923 61.3316L88.3712 61.218L82.3159 58.15L80.6673 58.2073L78.8519 58.274Z" fill="#3F3D56"/>
<path d="M127.839 92.3338C129.858 92.3338 131.495 90.5415 131.495 88.3305C131.495 86.1195 129.858 84.3271 127.839 84.3271C125.82 84.3271 124.184 86.1195 124.184 88.3305C124.184 90.5415 125.82 92.3338 127.839 92.3338Z" fill="#FF2727"/>
<path d="M23.0418 222.195C20.3597 222.453 17.6587 222.053 15.136 221.022C12.6134 219.992 10.3327 218.357 8.46077 216.238C6.01302 213.412 4.33329 209.774 2.70882 206.257C2.23595 205.233 1.74716 204.174 1.24988 203.16C0.695464 202.054 0.456189 200.791 0.562874 199.535C0.66956 198.278 1.11732 197.086 1.84846 196.11C2.54913 195.136 3.50033 194.413 4.57951 194.035C5.65869 193.658 6.81639 193.643 7.90345 193.992L8.14049 194.067L10.2739 203.183C10.5922 201.823 11.2753 198.76 11.7067 195.758L11.7429 195.507L11.9554 195.61C14.183 196.69 16.2776 198.072 18.1898 199.724C21.5774 202.7 24.3325 206.448 26.2639 210.707C28.1952 214.966 29.2564 219.635 29.3736 224.389L29.3792 224.673L23.0418 222.195Z" fill="#F2F2F2"/>
<path d="M104.471 224.875L0.942226 225C0.824941 225 0.712456 224.949 0.629523 224.858C0.54659 224.767 0.5 224.644 0.5 224.516C0.5 224.387 0.54659 224.264 0.629523 224.173C0.712456 224.083 0.824941 224.031 0.942226 224.031L104.471 223.906C104.588 223.907 104.7 223.958 104.783 224.049C104.865 224.14 104.912 224.263 104.912 224.391C104.912 224.519 104.865 224.642 104.783 224.733C104.7 224.823 104.588 224.875 104.471 224.875Z" fill="#CACACA"/>
<path d="M190.748 27.1772H171.064C170.621 27.1772 170.196 26.9844 169.882 26.6411C169.569 26.2979 169.393 25.8324 169.393 25.347C169.393 24.8615 169.569 24.396 169.882 24.0528C170.196 23.7096 170.621 23.5167 171.064 23.5167H190.748C191.192 23.5167 191.617 23.7096 191.93 24.0528C192.243 24.396 192.42 24.8615 192.42 25.347C192.42 25.8324 192.243 26.2979 191.93 26.6411C191.617 26.9844 191.192 27.1772 190.748 27.1772Z" fill="#060505"/>
<path d="M252.748 11.6351C251.939 11.6351 251.148 11.3722 250.475 10.8799C249.802 10.3875 249.277 9.68761 248.968 8.8688C248.658 8.04998 248.577 7.14898 248.735 6.27973C248.893 5.41048 249.282 4.61203 249.855 3.98534C250.427 3.35864 251.156 2.93186 251.95 2.75896C252.744 2.58605 253.566 2.67479 254.314 3.01396C255.062 3.35312 255.701 3.92748 256.151 4.66439C256.6 5.4013 256.84 6.26768 256.84 7.15396C256.84 8.34242 256.409 9.4822 255.642 10.3226C254.874 11.1629 253.834 11.6351 252.748 11.6351Z" fill="#060505"/>
</g>
<defs>
<clipPath id="clip0_75_8085">
<rect width="261" height="225" fill="white" transform="translate(0.5)"/>
</clipPath>
</defs>
</svg>
