<svg width="30" height="31" viewBox="0 0 30 31" fill="none" xmlns="http://www.w3.org/2000/svg">
<g clip-path="url(#clip0_83_4329)">
<path d="M0.640234 15.3205C0.639531 17.8411 1.30328 20.3022 2.56539 22.4715L0.519531 29.8834L8.16391 27.8946C10.2782 29.0367 12.6472 29.6351 15.0545 29.6353H15.0609C23.0079 29.6353 29.477 23.2186 29.4804 15.3318C29.482 11.51 27.9834 7.91631 25.2606 5.21258C22.5384 2.5091 18.9179 1.01944 15.0603 1.0177C7.11227 1.0177 0.643633 7.43398 0.640352 15.3205" fill="url(#paint0_linear_83_4329)"/>
<path d="M0.125391 15.3158C0.12457 17.9271 0.812109 20.4763 2.11922 22.7233L0 30.4008L7.91848 28.3407C10.1003 29.521 12.5568 30.1434 15.0564 30.1443H15.0628C23.295 30.1443 29.9965 23.4969 30 15.3277C30.0014 11.3686 28.4489 7.6457 25.6289 4.84512C22.8086 2.04488 19.0586 0.501628 15.0628 0.5C6.82922 0.5 0.128672 7.14651 0.125391 15.3158ZM4.84113 22.3363L4.54547 21.8706C3.30258 19.9097 2.64656 17.6436 2.6475 15.3167C2.65008 8.52663 8.2193 3.00233 15.0675 3.00233C18.3839 3.00372 21.5006 4.28651 23.8448 6.61395C26.1889 8.94163 27.4788 12.0358 27.478 15.3267C27.475 22.1169 21.9056 27.6419 15.0628 27.6419H15.0579C12.8298 27.6407 10.6446 27.047 8.73891 25.925L8.28539 25.6581L3.58641 26.8806L4.84113 22.3363Z" fill="url(#paint1_linear_83_4329)"/>
<path d="M11.3293 9.12189C11.0497 8.50526 10.7554 8.49282 10.4895 8.482C10.2718 8.4727 10.0229 8.4734 9.77422 8.4734C9.52531 8.4734 9.1209 8.56631 8.77906 8.93666C8.43687 9.30735 7.47266 10.2032 7.47266 12.0251C7.47266 13.8472 8.81012 15.6081 8.99656 15.8554C9.18324 16.1022 11.5786 19.9608 15.3721 21.4453C18.525 22.6789 19.1666 22.4335 19.8508 22.3717C20.5352 22.31 22.0591 21.4761 22.37 20.6113C22.6811 19.7467 22.6811 19.0055 22.5878 18.8506C22.4946 18.6963 22.2457 18.6036 21.8724 18.4185C21.4991 18.2333 19.6641 17.3374 19.3221 17.2137C18.9799 17.0903 18.7311 17.0286 18.4822 17.3994C18.2333 17.7697 17.5186 18.6036 17.3007 18.8506C17.0831 19.0982 16.8652 19.129 16.4921 18.9437C16.1186 18.7579 14.9166 18.3674 13.4906 17.1058C12.3811 16.1242 11.632 14.912 11.4143 14.5412C11.1965 14.171 11.3909 13.9703 11.5781 13.7857C11.7458 13.6198 11.9514 13.3533 12.1382 13.1371C12.3243 12.9208 12.3864 12.7665 12.5109 12.5196C12.6355 12.2724 12.5731 12.0561 12.48 11.8708C12.3864 11.6856 11.6612 9.8541 11.3293 9.12189Z" fill="white"/>
</g>
<defs>
<linearGradient id="paint0_linear_83_4329" x1="1448.56" y1="2887.59" x2="1448.56" y2="1.0177" gradientUnits="userSpaceOnUse">
<stop stop-color="#1FAF38"/>
<stop offset="1" stop-color="#60D669"/>
</linearGradient>
<linearGradient id="paint1_linear_83_4329" x1="1500" y1="2990.58" x2="1500" y2="0.5" gradientUnits="userSpaceOnUse">
<stop stop-color="#F9F9F9"/>
<stop offset="1" stop-color="white"/>
</linearGradient>
<clipPath id="clip0_83_4329">
<rect width="30" height="30" fill="white" transform="translate(0 0.5)"/>
</clipPath>
</defs>
</svg>
